General : ChattChitto RG - Movies [R2L]
==========
Complete name : Season of the Witch 2011 720p BDRip H264 [ChattChitto RG]
Format : MPEG-4
Format profile : Base Media
Codec ID : isom
File size : 1.76 GiB
Duration : 1h 34mn
Overall bit rate : 2 657 Kbps
Encoded date : UTC 2011-03-17 08:54:51

Video
==========
ID : 1
Format : AVC
Format/Info : Advanced Video Codec
Format profile : High@L4.1
Format settings, CABAC : Yes
Format settings, ReFrames : 4 frames
Codec ID : avc1
Codec ID/Info : Advanced Video Coding
Duration : 1h 34mn
Bit rate mode : Variable
Bit rate : 2 300 Kbps
Maximum bit rate : 14.7 Mbps
Width : 1 280 pixels
Height : 720 pixels
Display aspect ratio : 16:9
Frame rate mode : Constant
Frame rate : 23.976 fps
Color space : YUV
Chroma subsampling : 4:2:0
Bit depth : 8 bits
Scan type : Progressive
Bits/(Pixel*Frame) : 0.104
Stream size : 1.52 GiB (87%)
Writing library : x264 core 107 r1745 4785e8e
Encoded date : UTC 2011-03-18 08:25:01

Audio
==========
ID : 2
Format : AAC
Format/Info : Advanced Audio Codec
Format profile : LC
Codec ID : 40
Duration : 1h 34mn
Bit rate mode : Variable
Bit rate : 352.8 Kbps
Maximum bit rate : 429 Kbps
Channel(s) : 6 channels
Channel positions : Front: L C R, Side: L R, LFE
Sampling rate : 48.0 KHz
Compression mode : Lossy
Stream size : 240 MiB (13%)
Encoded date : UTC 2011-03-17 08:55:12

Subtitles : English


----------------------------------------------------
IMDB Link: http://www.imdb.com/title/tt0479997/
----------------------------------------------------



Screen Shots:
==============    
http://chattchitto.net/chattchittorg/movies/bdrip/2011/season_of_the_witch/3.png 
http://chattchitto.net/chattchittorg/movies/bdrip/2011/season_of_the_witch/4.png 
http://chattchitto.net/chattchittorg/movies/bdrip/2011/season_of_the_witch/5.png 
http://chattchitto.net/chattchittorg/movies/bdrip/2011/season_of_the_witch/6.png 
http://chattchitto.net/chattchittorg/movies/bdrip/2011/season_of_the_witch/7.png



ScreenShots Comparison:
=========================  
http://screenshotcomparison.com/comparison.php?id=36902



Plot:
======
14th-century knights transport a suspected witch to a monastery, where monks deduce her powers could be the source of the Black Plague.



Release Info:
==============
original name .... : Season of the Witch 2011 720p BDRip H264 [ChattChitto RG]
ripper.............: ELEKTRI4KA
encoder............: Recalled2Life (R2L)
video codec........: H264/.MP4
video bitrate......: 2300 Kbps
audio codec........: AAC-LC
aspect ratio.......: 16:9
resolution.........: 1280 x 720
genre..............: Action | Adventure | Fantasy
runtime............: 1h 34mn
language...........: English
rating.............: PG-13
subtitles..........: English
sample.............: Yes
2ch Audio..........: 2ch Audio for XBox Viewers
Compatibility .....: XBox | PS3 | WD Live



Source:
========
Season.of.the.Witch.2011.Bluray.1080p.DTS-HD.MA.7.1-ELEKTRI4KA THANKS!



Notes:
=======
ChattChitto RG Encourages Burning this Film with ConvertXtoDVD and Playing with VLC media player.
XBox 360 | PS3 | WD Live - Compatible 
Enhanced for your viewing pleasure ;)